<svg width="30" height="30" viewBox="0 0 30 30" fill="none" xmlns="http://www.w3.org/2000/svg">
<path d="M14.6698 0C9.32929 0 5 4.32929 5 9.6698C5 11.3874 5.46125 12.9938 6.24644 14.3911C6.37686 14.6232 6.51357 14.8516 6.662 15.0716L14.6698 29.0094L22.6776 15.0716C22.8009 14.8891 22.9073 14.6957 23.0173 14.5047L23.0934 14.3911C23.8779 12.9938 24.3396 11.3874 24.3396 9.6698C24.3396 4.32929 20.0099 0 14.6698 0ZM14.6698 4.8349C17.3399 4.8349 19.5047 6.99961 19.5047 9.6698C19.5047 12.3399 17.3399 14.5047 14.6698 14.5047C11.9996 14.5047 9.8349 12.3399 9.8349 9.6698C9.8349 6.99961 11.9996 4.8349 14.6698 4.8349Z" fill="#3F9D0C"/>
<path d="M14.6698 3.62616C11.3321 3.62616 8.62622 6.33201 8.62622 9.66978C8.62622 13.0071 11.3321 15.7134 14.6698 15.7134C18.0071 15.7134 20.7135 13.0071 20.7135 9.66978C20.7135 6.33201 18.0071 3.62616 14.6698 3.62616ZM14.6698 6.04361C16.6727 6.04361 18.296 7.66705 18.296 9.66978C18.296 11.6725 16.6727 13.296 14.6698 13.296C12.667 13.296 11.0437 11.6725 11.0437 9.66978C11.0437 7.66705 12.667 6.04361 14.6698 6.04361Z" fill="#068327"/>
</svg>
